#!OML:ASF X:\für Bonn\!DataBase\2005_08_12_Daniel\c3d\Daniel.ASF
:FULLY-SPECIFIED
:DEGREES
386
root 2.7515 17.241 -10.0225 353.9 22.2364 1.279
lowerback 18.0675 -3.86552 -3.83136
upperback 2.46757 -6.04999 -3.08126
thorax -7.37454 -2.84393 0.300716
lowerneck 0.294196 -6.56958 -5.55657
upperneck 14.6316 -9.99731 10.024
head 5.11123 -4.68008 3.55187
rclavicle 4.27387e-015 7.15625e-015
rhumerus -32.9388 5.88166 -92.7955
rradius 70.8081
rwrist -66.6754
rhand -12.0791 11.0486
rfingers 7.12502
rthumb 13.9808 -18.4613
lclavicle 4.27387e-015 7.15625e-015
lhumerus -30.5754 32.1095 72.6778
lradius 20.919
lwrist -31.1739
lhand -11.7322 -6.09763
lfingers 7.12502
lthumb 14.3151 23.3889
rfemur -23.636 -5.14845 19.7747
rtibia 28.5302
rfoot -14.3739 -371.508
rtoes -8.03126
lfemur 15.5546 -12.26 -28.6446
ltibia 22.9098
lfoot -30.5106 -1.03416
ltoes -3.76873
387
root 2.77152 17.2308 -9.92671 353.992 22.1043 1.34291
lowerback 18.0803 -3.86687 -3.65083
upperback 2.48448 -6.01659 -3.07751
thorax -7.38218 -2.83286 0.19726
lowerneck 0.0521979 -6.5808 -5.47739
upperneck 14.5669 -10.0008 9.99997
head 5.12787 -4.67283 3.52253
rclavicle -1.02374e-014 -3.97569e-015
rhumerus -33.182 5.78903 -93.0605
rradius 70.6111
rwrist -66.7592
rhand -12.6194 11.1289
rfingers 7.12502
rthumb 13.4601 -18.4162
lclavicle -1.02374e-014 -3.97569e-015
lhumerus -31.0447 32.4068 72.4029
lradius 20.833
lwrist -31.3423
lhand -11.7884 -5.97711
lfingers 7.12502
lthumb 14.2609 23.5132
rfemur -23.5959 -4.43829 19.5964
rtibia 27.7163
rfoot -14.6716 -372.933
rtoes -6.60215
lfemur 16.0316 -12.1077 -28.6915
ltibia 22.5189
lfoot -30.5779 -1.02875
ltoes -3.71884
388
root 2.7912 17.2216 -9.82933 354.098 21.9958 1.38237
lowerback 18.0884 -3.88227 -3.46997
upperback 2.48602 -5.99972 -3.04064
thorax -7.39973 -2.82908 0.132943
lowerneck -0.110183 -6.5677 -5.47853
upperneck 14.4291 -9.97467 10.0561
head 5.11362 -4.65542 3.53652
rclavicle 2.28602e-014 -1.43125e-014
rhumerus -33.4853 5.77563 -93.2835
rradius 70.471
rwrist -66.9292
rhand -13.1114 11.21
rfingers 7.12502
rthumb 12.9858 -18.3658
lclavicle 2.28602e-014 -1.43125e-014
lhumerus -31.6119 33.1155 71.9489
lradius 20.6543
lwrist -31.9018
lhand -11.859 -5.98054
lfingers 7.12502
lthumb 14.1929 23.5146
rfemur -23.6339 -3.70848 19.4185
rtibia 27.0947
rfoot -14.839 -374.451
rtoes -4.57295
lfemur 16.4843 -11.9604 -28.6951
ltibia 22.1163
lfoot -30.5804 -1.05321
ltoes -3.58917
389
root 2.81118 17.2106 -9.73002 354.182 21.8543 1.42552
lowerback 18.1269 -3.89059 -3.27233
upperback 2.49496 -5.97277 -3.02245
thorax -7.4297 -2.82077 0.0388456
lowerneck -0.326978 -6.55819 -5.41999
upperneck 14.327 -9.95096 10.0627
head 5.11467 -4.63616 3.52308
rclavicle -2.09718e-014 9.54166e-015
rhumerus -33.7249 5.69333 -93.5271
rradius 70.2638
rwrist -67.054
rhand -13.5291 11.2838
rfingers 7.12502
rthumb 12.5831 -18.3172
lclavicle -2.09718e-014 9.54166e-015
lhumerus -32.1793 33.7949 71.4516
lradius 20.43
lwrist -32.4223
lhand -11.9393 -6.03723
lfingers 7.12502
lthumb 14.1155 23.4633
rfemur -23.7115 -2.92243 19.2248
rtibia 26.6813
rfoot -14.9174 -376.083
rtoes -1.88623
lfemur 16.9753 -11.7886 -28.7036
ltibia 21.7186
lfoot -30.5868 -1.0879
ltoes -3.55336
390
root 2.83114 17.2004 -9.62789 354.265 21.7127 1.46858
lowerback 18.1666 -3.89333 -3.08488
upperback 2.49703 -5.93966 -2.99088
thorax -7.46512 -2.80891 -0.0365796
lowerneck -0.510629 -6.5371 -5.42198
upperneck 14.2333 -9.91743 10.1208
head 5.11718 -4.61327 3.53741
rclavicle -1.81888e-014 -1.35174e-014
rhumerus -33.9881 5.59649 -93.7426
rradius 70.0851
rwrist -67.281
rhand -13.8427 11.3236
rfingers 7.12502
rthumb 12.2807 -18.2958
lclavicle -1.81888e-014 -1.35174e-014
lhumerus -32.7941 34.5926 70.8627
lradius 20.1462
lwrist -33.1532
lhand -12.0582 -6.14557
lfingers 7.12502
lthumb 14.0009 23.3629
rfemur -23.7717 -2.26388 19.0882
rtibia 26.4882
rfoot -14.9876 -377.589
rtoes 0.912305
lfemur 17.4629 -11.5634 -28.6878
ltibia 21.3255
lfoot -30.5669 -1.129
ltoes -3.59303
391
root 2.85024 17.1916 -9.52444 354.363 21.5899 1.48676
lowerback 18.1926 -3.91694 -2.88546
upperback 2.49086 -5.93053 -2.94815
thorax -7.50162 -2.8089 -0.101802
lowerneck -0.66091 -6.50462 -5.38543
upperneck 14.0902 -9.86194 10.1456
head 5.09358 -4.58181 3.53803
rclavicle 3.18055e-014 7.15625e-015
rhumerus -34.2339 5.48377 -93.9558
rradius 69.8741
rwrist -67.4642
rhand -14.0916 11.3355
rfingers 7.12502
rthumb 12.0408 -18.2981
lclavicle 3.18055e-014 7.15625e-015
lhumerus -33.5131 35.5907 70.1056
lradius 19.8461
lwrist -34.1246
lhand -12.1461 -6.34238
lfingers 7.12502
lthumb 13.9162 23.172
rfemur -23.8983 -1.61157 19.0008
rtibia 26.4976
rfoot -15.0256 -379.066
rtoes 3.65567
lfemur 17.9049 -11.3648 -28.6332
ltibia 20.9482
lfoot -30.5522 -1.19891
ltoes -3.69397
392
root 2.86979 17.18 -9.41764 354.439 21.4342 1.51151
lowerback 18.2068 -3.9256 -2.68309
upperback 2.50602 -5.90003 -2.91555
thorax -7.51004 -2.79954 -0.186274
lowerneck -0.818595 -6.46789 -5.35858
upperneck 13.9668 -9.80404 10.1873
head 5.07837 -4.54805 3.54538
rclavicle 3.598e-014 3.02153e-014
rhumerus -34.4344 5.32747 -94.161
rradius 69.6733
rwrist -67.617
rhand -14.2765 11.2661
rfingers 7.12502
rthumb 11.8625 -18.3779
lclavicle 3.598e-014 3.02153e-014
lhumerus -34.2318 36.6852 69.2617
lradius 19.4802
lwrist -35.2171
lhand -12.1981 -6.50019
lfingers 7.12502
lthumb 13.8661 23.0176
rfemur -24.0669 -1.05009 18.9374
rtibia 26.7078
rfoot -15.009 -380.301
rtoes 5.86412
lfemur 18.3774 -11.1411 -28.5887
ltibia 20.6001
lfoot -30.523 -1.27968
ltoes -3.59793
393
root 2.88843 17.1678 -9.30897 354.495 21.286 1.51211
lowerback 18.2399 -3.93084 -2.45441
upperback 2.51632 -5.86161 -2.89161
thorax -7.53748 -2.78676 -0.295121
lowerneck -0.898863 -6.43748 -5.27739
upperneck 13.7677 -9.75319 10.2335
head 5.02499 -4.51923 3.54807
rclavicle -1.48989e-013 -4.13472e-014
rhumerus -34.6411 5.10622 -94.3914
rradius 69.5225
rwrist -67.8224
rhand -14.4848 11.17
rfingers 7.12502
rthumb 11.6616 -18.4855
lclavicle -1.48989e-013 -4.13472e-014
lhumerus -35.0309 37.7588 68.3124
lradius 19.1165
lwrist -36.3448
lhand -12.2746 -6.72658
lfingers 7.12502
lthumb 13.7923 22.7962
rfemur -24.2714 -0.751558 18.9645
rtibia 27.079
rfoot -14.8428 -381.169
rtoes 7.31201
lfemur 18.8436 -10.9786 -28.5137
ltibia 20.2902
lfoot -30.5086 -1.41325
ltoes -3.52986
394
root 2.90753 17.155 -9.19747 354.563 21.1315 1.51403
lowerback 18.2572 -3.94873 -2.25051
upperback 2.50913 -5.84286 -2.84201
thorax -7.56977 -2.78244 -0.358605
lowerneck -0.982073 -6.38383 -5.23781
upperneck 13.6201 -9.66638 10.2314
head 4.98471 -4.47608 3.5444
rclavicle -5.15846e-014 1.59028e-015
rhumerus -34.8532 4.96429 -94.5938
rradius 69.3161
rwrist -68.0248
rhand -14.6116 11.1112
rfingers 7.12502
rthumb 11.5394 -18.5511
lclavicle -5.15846e-014 1.59028e-015
lhumerus -36.0391 39.1202 67.0822
lradius 18.7069
lwrist -37.8718
lhand -12.3193 -7.02152
lfingers 7.12502
lthumb 13.7493 22.5042
rfemur -24.5064 -0.774405 19.0633
rtibia 27.6016
rfoot -14.5659 -381.548
rtoes 8.26191
lfemur 19.2834 -10.7634 -28.4178
ltibia 20.0052
lfoot -30.4731 -1.59544
ltoes -3.35401
395
root 2.92659 17.1416 -9.08236 354.61 20.9463 1.49699
lowerback 18.2794 -3.94913 -2.01547
upperback 2.51351 -5.79567 -2.80746
thorax -7.59668 -2.76565 -0.462578
lowerneck -1.1117 -6.35056 -5.14716
upperneck 13.489 -9.60848 10.2131
head 4.95679 -4.44356 3.52384
rclavicle 8.05078e-015 -1.51076e-014
rhumerus -35.0103 4.81141 -94.8097
rradius 68.9797
rwrist -68.2359
rhand -14.7451 11.1122
rfingers 7.12502
rthumb 11.4106 -18.5573
lclavicle 8.05078e-015 -1.51076e-014
lhumerus -37.0703 40.3688 65.8152
lradius 18.3295
lwrist -39.3546
lhand -12.3132 -7.23768
lfingers 7.12502
lthumb 13.7552 22.2876
rfemur -24.7462 -1.07118 19.2572
rtibia 28.2528
rfoot -14.2091 -381.543
rtoes 8.34721
lfemur 19.718 -10.4766 -28.281
ltibia 19.7785
lfoot -30.45 -1.77046
ltoes -3.36614
396
root 2.9446 17.1283 -8.96416 354.707 20.7776 1.48103
lowerback 18.2935 -3.96403 -1.79534
upperback 2.49097 -5.77075 -2.76359
thorax -7.64576 -2.75879 -0.54254
lowerneck -1.37984 -6.32394 -5.06363
upperneck 13.458 -9.56352 10.1773
head 4.98388 -4.41176 3.49282
rclavicle 1.46107e-014 -1.82882e-014
rhumerus -35.1302 4.78071 -95.0154
rradius 68.5143
rwrist -68.4847
rhand -14.8184 11.1385
rfingers 7.12502
rthumb 11.3399 -18.5349
lclavicle 1.46107e-014 -1.82882e-014
lhumerus -38.1591 41.5497 64.4693
lradius 17.9337
lwrist -40.7874
lhand -12.2268 -7.36875
lfingers 7.12502
lthumb 13.8385 22.1509
rfemur -25.0624 -1.43279 19.4669
rtibia 29.0117
rfoot -13.8851 -381.369
rtoes 7.6054
lfemur 20.0597 -10.1992 -28.1082
ltibia 19.6183
lfoot -30.3771 -2.04473
ltoes -3.21751
397
root 2.96261 17.1143 -8.84353 354.766 20.5961 1.42592
lowerback 18.3337 -3.9674 -1.52116
upperback 2.48061 -5.71946 -2.71376
thorax -7.70016 -2.74062 -0.651554
lowerneck -1.62639 -6.3113 -4.98997
upperneck 13.382 -9.53181 10.1272
head 4.99447 -4.38958 3.45915
rclavicle 1.20265e-014 2.46493e-014
rhumerus -35.2198 4.7497 -95.214
rradius 68.0397
rwrist -68.7384
rhand -14.9459 11.1867
rfingers 7.12502
rthumb 11.2169 -18.4934
lclavicle 1.20265e-014 2.46493e-014
lhumerus -39.3712 42.8934 62.9113
lradius 17.5063
lwrist -42.5051
lhand -12.1659 -7.46592
lfingers 7.12502
lthumb 13.8971 22.0497
rfemur -25.3595 -1.9318 19.7478
rtibia 29.8459
rfoot -13.584 -380.915
rtoes 6.30398
lfemur 20.3932 -9.86376 -27.8755
ltibia 19.5502
lfoot -30.2992 -2.32438
ltoes -3.01578
398
root 2.98004 17.1005 -8.71959 354.849 20.396 1.37086
lowerback 18.3696 -3.97158 -1.26575
upperback 2.43872 -5.67365 -2.65879
thorax -7.78372 -2.72434 -0.742557
lowerneck -1.83308 -6.28682 -4.88242
upperneck 13.3539 -9.4862 10.0391
head 5.00853 -4.36103 3.41033
rclavicle 3.62782e-014 1.82882e-014
rhumerus -35.3717 4.78716 -95.436
rradius 67.6077
rwrist -68.9588
rhand -15.1363 11.1886
rfingers 7.12502
rthumb 11.0333 -18.5014
lclavicle 3.62782e-014 1.82882e-014
lhumerus -40.6485 43.9556 61.3846
lradius 17.1592
lwrist -43.961
lhand -12.0577 -7.47221
lfingers 7.12502
lthumb 14.0014 22.0363
rfemur -25.6696 -2.37148 20.0294
rtibia 30.7179
rfoot -13.4083 -380.411
rtoes 4.71947
lfemur 20.6322 -9.48814 -27.6081
ltibia 19.6277
lfoot -30.2442 -2.66216
ltoes -2.83934
399
root 2.99695 17.0866 -8.59401 354.915 20.2083 1.29506
lowerback 18.4191 -3.98522 -0.990602
upperback 2.40197 -5.63533 -2.59666
thorax -7.87012 -2.71229 -0.83455
lowerneck -1.95156 -6.25695 -4.79084
upperneck 13.2202 -9.42654 9.96284
head 4.97538 -4.33143 3.37237
rclavicle 5.06901e-014 1.27222e-014
rhumerus -35.5111 4.87341 -95.6551
rradius 67.1968
rwrist -69.1203
rhand -15.3527 11.1424
rfingers 7.12502
rthumb 10.8246 -18.5586
lclavicle 5.06901e-014 1.27222e-014
lhumerus -42.0844 45.1663 59.6209
lradius 16.8017
lwrist -45.5674
lhand -11.839 -7.42909
lfingers 7.12502
lthumb 14.2121 22.0647
rfemur -25.9538 -2.85272 20.3352
rtibia 31.6125
rfoot -13.1829 -379.783
rtoes 3.25509
lfemur 20.8076 -9.15124 -27.3281
ltibia 19.8715
lfoot -30.178 -3.03108
ltoes -2.60417
